<?xml version="1.0" encoding="UTF-8" standalone="no"?>
<!-- Created with Inkscape (http://www.inkscape.org/) -->

<svg
   viewBox="0 0 99.043331 34.215196"
   version="1.1"
   id="svg1"
   inkscape:version="1.4 (86a8ad7, 2024-10-11)"
   sodipodi:docname="maganum.svg"
   xmlns:inkscape="http://www.inkscape.org/namespaces/inkscape"
   xmlns:sodipodi="http://sodipodi.sourceforge.net/DTD/sodipodi-0.dtd"
   xmlns="http://www.w3.org/2000/svg"
   xmlns:svg="http://www.w3.org/2000/svg">
  <sodipodi:namedview
     id="namedview1"
     pagecolor="#404040"
     bordercolor="#000000"
     borderopacity="0.25"
     inkscape:showpageshadow="false"
     inkscape:pageopacity="0.0"
     inkscape:pagecheckerboard="0"
     inkscape:deskcolor="#d1d1d1"
     inkscape:document-units="mm"
     borderlayer="false"
     inkscape:zoom="8"
     inkscape:cx="66.9375"
     inkscape:cy="16.5625"
     inkscape:window-width="1920"
     inkscape:window-height="991"
     inkscape:window-x="-9"
     inkscape:window-y="-9"
     inkscape:window-maximized="1"
     inkscape:current-layer="layer1" />
  <defs
     id="defs1" />
  <g
     inkscape:label="Layer 1"
     inkscape:groupmode="layer"
     id="layer1"
     transform="translate(176.55626,-130.76753)">
    <path
       d="m -167.79398,161.69908 h 0.69777 v -3.96351 h -0.69778 z"
       style="fill:#212721;fill-opacity:1;fill-rule:nonzero;stroke:none;stroke-width:0.234166"
       clip-path="none"
       id="path36" />
    <path
       d="m -162.71633,161.31468 c -0.2496,0.26672 -0.75585,0.44757 -1.2724,0.44757 -1.21451,0 -2.04934,-0.81067 -2.04934,-2.04411 0,-1.13868 0.72045,-2.04387 2.03176,-2.04387 0.51656,0 0.94897,0.16471 1.20913,0.40171 l -0.31289,0.51588 c -0.23906,-0.15792 -0.49898,-0.26671 -0.89624,-0.26671 -0.73827,0 -1.29537,0.53155 -1.29537,1.39299 0,0.86144 0.56249,1.39323 1.37435,1.39323 0.33586,0 0.6696,-0.10715 0.94218,-0.31772 l 0.26718,0.52103 z"
       style="fill:#212721;fill-opacity:1;fill-rule:nonzero;stroke:none;stroke-width:0.234166"
       clip-path="none"
       id="path37" />
    <path
       d="m -161.8515,157.73557 h 2.29895 v 0.65088 h -1.60122 v 0.98614 h 1.4306 v 0.65087 h -1.4306 v 1.02474 h 1.65747 v 0.65088 h -2.3552 z"
       style="fill:#212721;fill-opacity:1;fill-rule:nonzero;stroke:none;stroke-width:0.234166"
       clip-path="none"
       id="path38" />
    <path
       d="m -153.78935,161.31468 c -0.24961,0.26672 -0.75585,0.44757 -1.27264,0.44757 -1.21451,0 -2.04934,-0.81067 -2.04934,-2.04411 0,-1.13868 0.72069,-2.04387 2.03176,-2.04387 0.51679,0 0.94921,0.16471 1.20936,0.40171 l -0.31289,0.51588 c -0.23906,-0.15792 -0.49921,-0.26671 -0.89647,-0.26671 -0.73803,0 -1.29537,0.53155 -1.29537,1.39299 0,0.86144 0.56249,1.39323 1.37459,1.39323 0.33562,0 0.6696,-0.10715 0.94194,-0.31771 l 0.26718,0.52102 z"
       style="fill:#212721;fill-opacity:1;fill-rule:nonzero;stroke:none;stroke-width:0.234166"
       clip-path="none"
       id="path39" />
    <path
       d="m -152.22446,158.38645 v 1.17728 h 0.45234 c 0.40312,0 0.76171,-0.20354 0.76171,-0.61227 0,-0.31047 -0.17109,-0.57718 -0.73827,-0.57718 -0.13125,0 -0.29062,0.005 -0.47578,0.0105 m -0.70077,3.31427 v -3.96351 c 0.22266,0 1.09452,-0.0105 1.20936,-0.0105 1.08514,0 1.44139,0.53858 1.44139,1.22291 0,0.68433 -0.43828,1.01936 -0.7664,1.1333 l 1.24217,1.61947 h -0.84608 l -1.09452,-1.48424 h -0.48983 v 1.48424 h -0.69843 z"
       style="fill:#212721;fill-opacity:1;fill-rule:nonzero;stroke:none;stroke-width:0.234166"
       clip-path="none"
       id="path40" />
    <path
       d="m -148.98779,157.73557 h 2.29919 v 0.65088 h -1.60076 v 0.98614 h 1.42967 v 0.65087 h -1.42967 v 1.02475 h 1.65701 v 0.65087 h -2.35544 z"
       style="fill:#212721;fill-opacity:1;fill-rule:nonzero;stroke:none;stroke-width:0.234166"
       clip-path="none"
       id="path41" />
    <path
       d="m -144.5441,160.03399 h 1.16248 l -0.57655,-1.41054 z m 0.29531,-2.30895 h 0.61405 l 1.68044,3.97568 h -0.7453 l -0.41484,-1.01398 h -1.69685 l -0.41483,1.01398 h -0.70546 l 1.68044,-3.97568 z"
       style="fill:#212721;fill-opacity:1;fill-rule:nonzero;stroke:none;stroke-width:0.234166"
       clip-path="none"
       id="path42" />
    <path
       d="m -141.1504,157.73557 h 0.70545 l 1.35467,1.85273 1.29608,-1.85273 h 0.65858 v 3.96351 h -0.69374 v -2.86507 l -1.25389,1.76149 h -0.10312 l -1.26561,-1.74394 v 2.84752 h -0.69842 z"
       style="fill:#212721;fill-opacity:1;fill-rule:nonzero;stroke:none;stroke-width:0.234166"
       clip-path="none"
       id="path43" />
    <path
       d="m -112.54303,161.31469 c -0.24843,0.26671 -0.75467,0.44756 -1.27029,0.44756 -1.21639,0 -2.05075,-0.81067 -2.05075,-2.0441 0,-1.13868 0.72187,-2.04387 2.032,-2.04387 0.51562,0 0.94921,0.1647 1.20936,0.40171 l -0.31406,0.51588 c -0.23906,-0.15793 -0.49687,-0.26672 -0.8953,-0.26672 -0.73827,0 -1.29373,0.53156 -1.29373,1.393 0,0.86144 0.56249,1.39323 1.37576,1.39323 0.33515,0 0.66796,-0.10716 0.93983,-0.31772 z"
       style="fill:#212721;fill-opacity:1;fill-rule:nonzero;stroke:none;stroke-width:0.234166"
       clip-path="none"
       id="path44" />
    <path
       d="m -109.9626,161.11138 c 0.83671,0 1.33592,-0.61251 1.33592,-1.39323 0,-0.8212 -0.58593,-1.393 -1.33592,-1.393 -0.74764,0 -1.32888,0.5718 -1.32888,1.393 0,0.8212 0.58593,1.39323 1.32888,1.39323 m 0,-3.4371 c 1.18124,0 2.07419,0.8088 2.07419,2.04387 0,1.23531 -0.89295,2.0441 -2.07419,2.0441 -1.18123,0 -2.06715,-0.81067 -2.06715,-2.0441 0,-1.14921 0.84608,-2.04387 2.06715,-2.04387"
       style="fill:#212721;fill-opacity:1;fill-rule:nonzero;stroke:none;stroke-width:0.234166"
       clip-path="none"
       id="path45" />
    <path
       d="m -106.87124,157.73558 h 0.70312 l 1.35701,1.85272 1.29607,-1.85272 h 0.65859 v 3.96351 h -0.69375 v -2.86507 l -1.25388,1.76148 h -0.10313 l -1.2656,-1.74394 v 2.84752 h -0.69843 z"
       style="fill:#212721;fill-opacity:1;fill-rule:nonzero;stroke:none;stroke-width:0.234166"
       clip-path="none"
       id="path46" />
    <path
       d="m -100.87836,158.38645 v 1.21776 c 0.16406,0.0175 0.33281,0.0281 0.49452,0.0281 0.414841,0 0.738273,-0.1984 0.738273,-0.64059 0,-0.41223 -0.255463,-0.61741 -0.733583,-0.61741 -0.14297,0 -0.31406,0.005 -0.49921,0.0105 m -0.70077,3.31427 v -3.96351 c 0.22265,0 0.85311,-0.0122 1.13201,-0.0122 1.167172,0 1.537481,0.6228 1.537481,1.27367 0,0.65088 -0.503899,1.28608 -1.453101,1.28608 -0.11953,0 -0.34687,0 -0.51796,-0.0175 v 1.43159 h -0.69843 z"
       style="fill:#212721;fill-opacity:1;fill-rule:nonzero;stroke:none;stroke-width:0.234166"
       clip-path="none"
       id="path47" />
    <path
       d="m -97.36982,160.03399 h 1.162481 l -0.576553,-1.41054 z m 0.295307,-2.30894 h 0.614055 l 1.678099,3.97567 h -0.742958 l -0.414838,-1.01398 h -1.696849 l -0.414838,1.01398 h -0.703114 z"
       style="fill:#212721;fill-opacity:1;fill-rule:nonzero;stroke:none;stroke-width:0.234166"
       clip-path="none"
       id="path48" />
    <path
       d="m -91.137882,161.69909 -2.186686,-2.74599 v 2.74599 h -0.651553 v -3.96351 h 0.557803 l 2.184342,2.75815 v -2.75815 h 0.653896 v 3.96351 z"
       style="fill:#212721;fill-opacity:1;fill-rule:nonzero;stroke:none;stroke-width:0.234166"
       clip-path="none"
       id="path49" />
    <path
       d="m -87.687935,160.04616 v 1.65293 h -0.698426 v -1.65293 l -1.401543,-2.31058 h 0.79452 l 0.986702,1.65971 0.977329,-1.65971 h 0.75702 z"
       style="fill:#212721;fill-opacity:1;fill-rule:nonzero;stroke:none;stroke-width:0.234166"
       clip-path="none"
       id="path50" />
    <path
       d="m -132.66616,130.76753 h 3.37729 v 0.67146 h -1.32888 v 3.41581 h -0.71952 v -3.41581 h -1.32889 z"
       style="fill:#212721;fill-opacity:1;fill-rule:nonzero;stroke:none;stroke-width:0.234166"
       clip-path="none"
       id="path51" />
    <path
       d="m -125.86001,133.10946 h -1.87497 v 1.74534 h -0.71953 v -4.08727 h 0.71953 v 1.67047 h 1.87497 v -1.67047 h 0.71483 v 4.08727 h -0.71483 z"
       style="fill:#212721;fill-opacity:1;fill-rule:nonzero;stroke:none;stroke-width:0.234166"
       clip-path="none"
       id="path52" />
    <path
       d="m -123.83036,130.76753 h 2.37184 v 0.67146 h -1.64997 v 1.01539 h 1.47419 v 0.67146 h -1.47419 v 1.0575 h 1.71091 v 0.67146 h -2.43278 z"
       style="fill:#212721;fill-opacity:1;fill-rule:nonzero;stroke:none;stroke-width:0.234166"
       clip-path="none"
       id="path53" />
    <path
       d="m -121.73976,160.38493 c 0,1.4702 -1.27264,2.94228 -2.35075,3.61428 -1.10154,0.69128 -2.14918,1.00357 -2.41402,0.98252 -4.23275,-0.34915 -7.9827,-2.82292 -7.9827,-5.73735 0,-1.43698 1.08515,-3.22467 4.12494,-3.22467 1.68279,0 3.12652,0.6841 3.78042,1.18945 0.11718,0.0913 0.18046,0.0791 0.27655,0.0175 0.43125,-0.29128 1.74607,-1.19647 3.55542,-1.19647 2.18434,0 4.39446,1.11411 4.39446,3.54402 0,1.48611 -1.00076,3.03703 -2.72574,4.09508 -0.43359,0.2702 -0.94217,0.49829 -1.4906,0.69655 -0.30937,0.11228 -0.44999,-0.0211 -0.12187,-0.26143 0.80858,-0.6053 2.87573,-2.2002 2.87573,-4.19494 0,-1.35462 -1.24216,-2.70551 -3.39135,-2.70551 -1.63826,0 -2.84761,0.92625 -3.07261,1.08066 -0.11719,0.0791 -0.19453,0.0685 -0.29531,-0.0175 -0.58827,-0.53507 -1.79528,-1.1071 -3.19214,-1.1071 -1.70622,0 -3.2437,0.94918 -3.2437,2.63532 0,3.06691 5.28273,4.33017 6.5624,4.33017 0.3164,0 3.14527,-0.99657 3.14527,-3.39503 0,-0.84553 -0.52265,-1.40352 -1.2117,-1.40352 -0.89999,0 -1.41795,0.76317 -1.76951,1.18594 -0.0797,0.0983 -0.2039,0.14388 -0.2789,0 -0.30937,-0.56829 -0.91873,-1.20349 -1.74841,-1.20349 -0.73827,0 -1.18123,0.54044 -1.18123,1.13517 0,1.39651 1.92887,2.26333 2.82886,2.57559 0.17578,0.0632 0.17344,0.24914 -0.0703,0.22458 -1.28201,-0.12281 -4.46009,-1.09835 -4.46009,-3.18106 0,-0.86143 0.73359,-1.81412 2.19606,-1.81412 0.98905,0 1.9195,0.54583 2.47262,1.21238 0.0516,0.0667 0.14063,0.0562 0.18984,0.007 0.0492,-0.0473 1.19295,-1.17728 2.56403,-1.17728 0.97967,0 2.03903,0.67193 2.03903,2.09487"
       style="fill:#e4032c;fill-opacity:1;fill-rule:nonzero;stroke:none;stroke-width:0.234166"
       clip-path="none"
       id="path55" />
    <path
       id="path5"
       style="display:inline;fill:#212721;fill-opacity:1;fill-rule:nonzero;stroke:none;stroke-width:0.234167"
       d="m -78.088868,135.91202 c -0.0328,-0.01 -0.076,0.007 -0.113521,0.026 0,0 -0.396101,0.19417 -0.543742,0.25734 -1.040624,0.43049 -1.389826,0.57321 -3.058553,0.69486 -0.164061,0.0117 -1.019535,0.0444 -1.401576,0.0632 -0.217961,0.009 -0.393702,0.16845 -0.485112,0.36264 l -3.489825,7.92914 c -0.0234,0.0508 -0.0937,0.0508 -0.114821,0 l -3.497245,-7.93847 c -0.0891,-0.19652 -0.290631,-0.35566 -0.494532,-0.35566 l -2.796052,0.005 c -0.12891,0 -0.241421,0.0983 -0.255481,0.22692 l -1.371066,12.58215 c -0.1125,0.77909 -0.585932,1.63701 -1.211705,2.18611 -0.0469,0.0421 -0.0492,0.0983 -0.0352,0.13502 0.0141,0.037 0.0516,0.0772 0.11249,0.0772 h 4.53743 c 0.0633,0 0.0984,-0.0402 0.1125,-0.0772 0.0141,-0.0367 0.0141,-0.0894 -0.0281,-0.12963 -0.506252,-0.48429 -0.752333,-1.25452 -0.667963,-2.11081 l 0.855494,-7.81984 c 0.007,-0.0737 0.0586,-0.12821 0.133561,-0.14037 0.0726,-0.0124 0.14065,0.0227 0.17112,0.0894 l 4.295989,9.185 c 0.075,0.16144 0.314411,0.16272 0.391751,0.001 l 4.293709,-9.18479 c 0.0328,-0.0667 0.10079,-0.1018 0.173441,-0.0896 0.0727,0.0124 0.12422,0.0685 0.1336,0.14038 l 0.855444,7.81988 c 0.082,0.85629 -0.161731,1.62651 -0.670313,2.11081 -0.0422,0.0405 -0.0422,0.0929 -0.0281,0.12982 0.0141,0.0367 0.0539,0.0772 0.11247,0.0772 h 4.53981 c 0.0609,0 0.0984,-0.0405 0.11247,-0.0772 0.0141,-0.0386 0.0117,-0.0948 -0.0351,-0.13684 -0.625763,-0.5491 -1.101565,-1.40706 -1.211705,-2.18615 -0.0211,-0.19465 -0.925754,-8.48551 -0.925754,-8.48551 -0.0258,-0.22459 -0.0797,-0.76504 -0.0867,-0.89605 -0.068,-1.35698 0.271881,-1.75469 0.625772,-2.21325 0.0586,-0.0725 0.250761,-0.3369 0.290611,-0.39305 0.370302,-0.51237 0.792174,-1.09494 0.824984,-1.73131 0.004,-0.0877 -0.0178,-0.12399 -0.0505,-0.13364 z m -97.895822,0.002 c -0.0327,0.009 -0.0551,0.045 -0.0507,0.13157 0.0351,0.63637 0.45696,1.21895 0.82782,1.73366 0.0387,0.0538 0.23204,0.32053 0.29004,0.39305 0.35503,0.45856 0.69432,0.85394 0.62752,2.21325 -0.007,0.12868 -0.0616,0.66915 -0.0862,0.8961 0,0 -0.90339,8.29012 -0.92624,8.48477 -0.11073,0.77908 -0.58526,1.63701 -1.21098,2.18635 -0.0474,0.0421 -0.0492,0.098 -0.0352,0.13664 0.0141,0.037 0.051,0.0772 0.11246,0.0772 h 4.53815 c 0.0616,0 0.0984,-0.0402 0.11251,-0.0772 0.0141,-0.0367 0.0141,-0.0894 -0.0281,-0.12962 -0.50789,-0.4843 -0.75231,-1.25448 -0.66958,-2.11077 l 0.85589,-7.81988 c 0.009,-0.0737 0.0598,-0.12821 0.1336,-0.14038 0.0719,-0.0124 0.14062,0.0227 0.17226,0.0894 l 4.29558,9.18507 c 0.0755,0.16143 0.30585,0.16143 0.38132,0 1.44939,-3.05416 4.29558,-9.18507 4.29558,-9.18507 0.0316,-0.0667 0.10218,-0.10378 0.17604,-0.0916 0.0722,0.0124 0.12493,0.0667 0.1336,0.14038 l 0.85594,7.81988 c 0.0827,0.85816 -0.16151,1.62647 -0.66964,2.11077 -0.0422,0.0405 -0.0422,0.0929 -0.0281,0.12987 0.0141,0.0367 0.0527,0.0772 0.1125,0.0772 h 4.53811 c 0.0616,0 0.0984,-0.0405 0.11251,-0.0772 0.014,-0.0386 0.0124,-0.0948 -0.0351,-0.13499 -0.62577,-0.54932 -1.10015,-1.4073 -1.21101,-2.18639 l -1.37115,-12.58141 c -0.0141,-0.13102 -0.12304,-0.22693 -0.25499,-0.22928 l -2.7963,-0.002 c -0.20203,0 -0.4043,0.15913 -0.49383,0.3533 l -3.49588,7.94014 c -0.023,0.051 -0.0949,0.051 -0.11603,0 l -3.49072,-7.92841 c -0.0895,-0.19418 -0.26696,-0.35329 -0.48329,-0.36264 -0.3832,-0.0211 -1.2391,-0.0515 -1.40247,-0.0632 -1.66802,-0.12166 -2.01771,-0.26672 -3.0583,-0.69486 -0.14764,-0.0632 -0.54484,-0.25738 -0.54484,-0.25738 -0.0369,-0.0187 -0.08,-0.0357 -0.11271,-0.0263 z m 42.0415,2.83784 c -4.31478,0 -7.34289,2.8122 -7.34288,6.85409 0,4.04236 2.79605,6.81103 7.16709,6.81103 1.66404,0 2.84997,-0.24047 4.56558,-0.67189 0.0609,-0.0159 0.10779,-0.0721 0.10779,-0.13689 v -4.11799 c 0,-0.49131 0.1336,-1.02826 0.39375,-1.38787 0.068,-0.0912 -0.002,-0.21576 -0.11482,-0.21576 l -3.19921,-0.0159 c -0.11514,0 -0.18045,0.1317 -0.11015,0.2246 0.30234,0.3947 0.47813,0.94567 0.47813,1.39651 v 2.61426 c 0,0.0651 -0.0446,0.12279 -0.11015,0.13688 -0.5414,0.11929 -1.19765,0.2024 -1.8914,0.1984 -2.39059,-0.0124 -4.44836,-1.61434 -4.44836,-4.8355 0,-3.03539 2.04607,-4.98707 4.5351,-4.98707 1.96639,0 3.30228,0.62467 4.0429,1.56403 0.082,0.10531 0.24846,0.0438 0.24846,-0.0877 v -2.46828 c 0,-0.0609 -0.0351,-0.11466 -0.0914,-0.13335 -1.12498,-0.40009 -2.65543,-0.74166 -4.23042,-0.74166 z m 7.32646,0.32984 c -0.12421,0 -0.18984,0.14741 -0.10078,0.23864 0.56485,0.56619 1.11093,1.41313 1.11093,2.19455 v 9.02291 c 0,0.46324 -0.23437,1.01072 -0.55781,1.38974 -0.0773,0.0912 -0.014,0.23137 0.1078,0.23137 h 3.2156 c 0.12187,0 0.18282,-0.1385 0.10548,-0.23137 -0.3,-0.36334 -0.49687,-0.90895 -0.49687,-1.38974 v -6.61804 c 0,-0.13149 0.16405,-0.19113 0.24841,-0.0894 l 6.85774,8.27774 c 0.0281,0.0316 0.068,0.0508 0.11015,0.0508 h 1.98983 c 0.0773,0 0.14062,-0.0632 0.14062,-0.14013 v -11.31575 c 0,-0.49132 0.16405,-1.04113 0.44531,-1.39676 0.0703,-0.0912 0.002,-0.2246 -0.11251,-0.2246 v -4e-5 h -3.04216 c -0.11485,0 -0.18517,0.13336 -0.1125,0.2246 0.2367,0.29948 0.44766,0.85161 0.44766,1.39907 v 6.60587 c 0,0.13172 -0.16639,0.19117 -0.25077,0.0896 l -6.85774,-8.27007 c -0.0258,-0.0304 -0.068,-0.0491 -0.11015,-0.0491 z m 24.85747,0.003 c -0.11954,0 -0.18046,0.13804 -0.1078,0.23162 0.26015,0.33457 0.41485,0.92651 0.43593,1.39209 v 6.95445 c 0,1.92994 -0.982,2.87748 -2.90619,2.87748 -1.7367,0 -2.87108,-0.94754 -2.87108,-2.87748 v -6.95445 c 0,-0.48897 0.16406,-1.04113 0.44531,-1.39676 0.0726,-0.0913 0.005,-0.2246 -0.1125,-0.2246 h -3.54602 c -0.1172,0 -0.18516,0.13336 -0.11251,0.2246 0.28125,0.35563 0.44531,0.90779 0.44531,1.39676 v 6.95445 c 0,3.13881 2.55231,4.80041 5.75383,4.80041 3.19917,0 5.256952,-1.66324 5.256952,-4.80041 v -6.95445 c 0,-0.48897 0.164081,-1.04113 0.445322,-1.39676 0.0703,-0.0913 0.002,-0.2246 -0.112501,-0.2246 l -0.005,-0.002 z m -49.10522,0.002 c -0.11951,0 -0.1804,0.13567 -0.1078,0.22927 0.34452,0.44922 0.37265,1.11601 0.21328,1.62838 -0.003,0.005 -0.005,0.0164 -0.005,0.0164 l -4.0919,9.65107 c -0.20391,0.42815 -0.52734,0.92999 -0.8735,1.32117 -0.0792,0.0896 -0.0141,0.23162 0.1071,0.23162 h 3.24579 c 0.11053,0 0.17582,-0.11769 0.11952,-0.21219 -0.24843,-0.41761 -0.3023,-1.02125 -0.12183,-1.47911 l 0.64217,-1.56868 h 5.30385 l 0.65928,1.56868 c 0.0578,0.13758 0.098,0.26242 0.10565,0.46584 0.0134,0.35799 -0.0964,0.72904 -0.30092,1.00435 -0.0656,0.0913 0.005,0.22111 0.11952,0.22111 h 3.81092 l 3e-4,0.002 c 0.11948,0 0.18745,-0.14037 0.10545,-0.23137 -0.34453,-0.38955 -0.66562,-0.89137 -0.86952,-1.31764 l -4.9054,-11.40182 c -0.0328,-0.0772 -0.11016,-0.12869 -0.19685,-0.12869 z m 1.74372,3.64892 c 0.053,-2.1e-4 0.10632,0.0284 0.13092,0.0862 l 1.74843,4.15629 h -3.70779 l 1.69922,-4.15629 c 0.0234,-0.0571 0.0762,-0.0861 0.12922,-0.0862 z"
       sodipodi:nodetypes="ccccccccccccccsssccccccccccccccsscccccccccccccccccccssccccccccccccccssccccccccccccccccccscssccccssccsscsscccccsscsscssccsssscccscsscccccccsssscsscsssssccccccccccsscccccccsccccccccccccc" />
  </g>
</svg>
